<?xml version="1.0" encoding="iso-8859-1"?>
<!-- Generator: Adobe Illustrator 16.0.0, SVG Export Plug-In . SVG Version: 6.00 Build 0)  -->
<!DOCTYPE svg PUBLIC "-//W3C//DTD SVG 1.1//EN" "http://www.w3.org/Graphics/SVG/1.1/DTD/svg11.dtd">
<svg version="1.1" id="Capa_1" xmlns="http://www.w3.org/2000/svg" xmlns:xlink="http://www.w3.org/1999/xlink" x="0px" y="0px"
	 width="27.083px" height="27.083px" viewBox="0 0 27.083 27.083" style="enable-background:new 0 0 27.083 27.083;"
	 xml:space="preserve">
<g>
	<path style="fill:#333333;" d="M24.18,9.61c-0.273,0.529-0.548,1.063-0.8,1.595c0.261,0.745,0.443,1.525,0.524,2.337h-1.374
		c-0.074,0.349-0.123,0.692-0.123,1.025v1.058h1.499c-0.152,1.508-0.63,2.916-1.358,4.167h-3.055
		c0.229-0.977,0.371-2.042,0.465-3.142h-0.702h-1.361c-0.103,1.14-0.283,2.192-0.533,3.142H9.721
		c-0.32-1.227-0.537-2.629-0.604-4.167h8.059v-1.058c0-0.332-0.049-0.676-0.123-1.025H9.117c0.067-1.539,0.284-2.941,0.604-4.167
		h5.584C14.94,8.669,14.591,7.978,14.3,7.292h-3.866c0.862-1.966,2.015-3.125,3.107-3.125c0-0.724,0.13-1.417,0.358-2.064
		c-0.12-0.004-0.237-0.019-0.358-0.019c-6.893,0-12.5,5.607-12.5,12.5c0,6.894,5.607,12.5,12.5,12.5c6.893,0,12.5-5.606,12.5-12.5
		c0-2.093-0.523-4.065-1.438-5.801C24.464,9.056,24.325,9.332,24.18,9.61z M9.248,5.103C8.857,5.75,8.509,6.483,8.209,7.292H6.116
		C7.009,6.381,8.072,5.639,9.248,5.103z M4.535,9.375h3.054c-0.3,1.281-0.493,2.683-0.553,4.167H3.178
		C3.328,12.034,3.808,10.625,4.535,9.375z M4.535,19.792c-0.726-1.251-1.207-2.659-1.357-4.167h3.857
		c0.062,1.484,0.253,2.885,0.553,4.167H4.535z M6.116,21.875h2.093c0.3,0.808,0.648,1.542,1.039,2.189
		C8.072,23.528,7.009,22.785,6.116,21.875z M13.542,25c-1.093,0-2.246-1.16-3.106-3.125h6.212C15.788,23.84,14.634,25,13.542,25z
		 M17.835,24.064c0.391-0.647,0.738-1.38,1.038-2.189h2.094C20.075,22.785,19.011,23.528,17.835,24.064z"/>
	<g>
		<g>
			<path style="fill:#333333;" d="M19.792,0c-2.301,0-4.167,1.868-4.167,4.167c0,2.776,3.634,6.584,3.634,10.401h1.063
				c0.003-3.816,3.637-7.514,3.637-10.401C23.958,1.868,22.092,0,19.792,0z M19.792,6.313c-1.187,0-2.146-0.958-2.146-2.147
				c0-1.186,0.96-2.147,2.146-2.147s2.146,0.961,2.146,2.147C21.938,5.355,20.978,6.313,19.792,6.313z"/>
		</g>
	</g>
</g>
<g>
</g>
<g>
</g>
<g>
</g>
<g>
</g>
<g>
</g>
<g>
</g>
<g>
</g>
<g>
</g>
<g>
</g>
<g>
</g>
<g>
</g>
<g>
</g>
<g>
</g>
<g>
</g>
<g>
</g>
</svg>
